<mxfile host="app.diagrams.net" modified="2020-08-11T04:02:55.761Z" agent="5.0 (Macintosh; Intel Mac OS X 10_15_6) AppleWebKit/537.36 (KHTML, like Gecko) Chrome/84.0.4147.105 Safari/537.36" etag="V9R9CrMFSgl8zns3866J" version="13.6.2" type="github">
  <diagram id="-tFmNn8upbpJzHhY9VwJ" name="Page-1">
    <mxGraphModel dx="946" dy="534" grid="1" gridSize="10" guides="1" tooltips="1" connect="1" arrows="1" fold="1" page="1" pageScale="1" pageWidth="827" pageHeight="1169" math="0" shadow="0">
      <root>
        <mxCell id="0" />
        <mxCell id="1" parent="0" />
        <mxCell id="bfp73OwQ1fV5iFU1kIxK-5" value="" style="edgeStyle=orthogonalEdgeStyle;rounded=0;orthogonalLoop=1;jettySize=auto;html=1;" edge="1" parent="1" source="bfp73OwQ1fV5iFU1kIxK-3" target="bfp73OwQ1fV5iFU1kIxK-4">
          <mxGeometry relative="1" as="geometry" />
        </mxCell>
        <mxCell id="bfp73OwQ1fV5iFU1kIxK-3" value="initialize()" style="rounded=1;whiteSpace=wrap;html=1;" vertex="1" parent="1">
          <mxGeometry x="280" y="110" width="110" height="60" as="geometry" />
        </mxCell>
        <mxCell id="bfp73OwQ1fV5iFU1kIxK-7" value="" style="edgeStyle=orthogonalEdgeStyle;rounded=0;orthogonalLoop=1;jettySize=auto;html=1;" edge="1" parent="1" source="bfp73OwQ1fV5iFU1kIxK-4" target="bfp73OwQ1fV5iFU1kIxK-6">
          <mxGeometry relative="1" as="geometry" />
        </mxCell>
        <mxCell id="bfp73OwQ1fV5iFU1kIxK-4" value="connect()" style="rounded=1;whiteSpace=wrap;html=1;" vertex="1" parent="1">
          <mxGeometry x="280" y="210" width="110" height="60" as="geometry" />
        </mxCell>
        <mxCell id="bfp73OwQ1fV5iFU1kIxK-9" value="" style="edgeStyle=orthogonalEdgeStyle;rounded=0;orthogonalLoop=1;jettySize=auto;html=1;" edge="1" parent="1" source="bfp73OwQ1fV5iFU1kIxK-6" target="bfp73OwQ1fV5iFU1kIxK-8">
          <mxGeometry relative="1" as="geometry" />
        </mxCell>
        <mxCell id="bfp73OwQ1fV5iFU1kIxK-11" value="" style="edgeStyle=orthogonalEdgeStyle;rounded=0;orthogonalLoop=1;jettySize=auto;html=1;" edge="1" parent="1" source="bfp73OwQ1fV5iFU1kIxK-6" target="bfp73OwQ1fV5iFU1kIxK-10">
          <mxGeometry relative="1" as="geometry" />
        </mxCell>
        <mxCell id="bfp73OwQ1fV5iFU1kIxK-6" value="start()" style="rounded=1;whiteSpace=wrap;html=1;" vertex="1" parent="1">
          <mxGeometry x="280" y="310" width="110" height="60" as="geometry" />
        </mxCell>
        <mxCell id="bfp73OwQ1fV5iFU1kIxK-37" value="" style="edgeStyle=orthogonalEdgeStyle;rounded=0;orthogonalLoop=1;jettySize=auto;html=1;" edge="1" parent="1" source="bfp73OwQ1fV5iFU1kIxK-8" target="bfp73OwQ1fV5iFU1kIxK-36">
          <mxGeometry relative="1" as="geometry" />
        </mxCell>
        <mxCell id="bfp73OwQ1fV5iFU1kIxK-8" value="run()" style="rounded=1;whiteSpace=wrap;html=1;" vertex="1" parent="1">
          <mxGeometry x="280" y="410" width="110" height="60" as="geometry" />
        </mxCell>
        <mxCell id="bfp73OwQ1fV5iFU1kIxK-14" value="" style="edgeStyle=orthogonalEdgeStyle;rounded=0;orthogonalLoop=1;jettySize=auto;html=1;" edge="1" parent="1" source="bfp73OwQ1fV5iFU1kIxK-10" target="bfp73OwQ1fV5iFU1kIxK-13">
          <mxGeometry relative="1" as="geometry" />
        </mxCell>
        <mxCell id="bfp73OwQ1fV5iFU1kIxK-10" value="send_dump_request()" style="rounded=1;whiteSpace=wrap;html=1;" vertex="1" parent="1">
          <mxGeometry x="468" y="310" width="122" height="60" as="geometry" />
        </mxCell>
        <mxCell id="bfp73OwQ1fV5iFU1kIxK-22" value="" style="edgeStyle=orthogonalEdgeStyle;rounded=0;orthogonalLoop=1;jettySize=auto;html=1;exitX=1.003;exitY=0.144;exitDx=0;exitDy=0;exitPerimeter=0;" edge="1" parent="1" source="bfp73OwQ1fV5iFU1kIxK-13" target="bfp73OwQ1fV5iFU1kIxK-21">
          <mxGeometry relative="1" as="geometry">
            <Array as="points">
              <mxPoint x="590" y="440" />
            </Array>
          </mxGeometry>
        </mxCell>
        <mxCell id="bfp73OwQ1fV5iFU1kIxK-50" value="create" style="edgeLabel;html=1;align=center;verticalAlign=middle;resizable=0;points=[];" vertex="1" connectable="0" parent="bfp73OwQ1fV5iFU1kIxK-22">
          <mxGeometry x="0.0443" y="3" relative="1" as="geometry">
            <mxPoint as="offset" />
          </mxGeometry>
        </mxCell>
        <mxCell id="bfp73OwQ1fV5iFU1kIxK-13" value="dump_table()" style="rounded=1;whiteSpace=wrap;html=1;" vertex="1" parent="1">
          <mxGeometry x="468" y="410" width="122" height="240" as="geometry" />
        </mxCell>
        <mxCell id="bfp73OwQ1fV5iFU1kIxK-39" style="edgeStyle=orthogonalEdgeStyle;rounded=0;orthogonalLoop=1;jettySize=auto;html=1;exitX=0.25;exitY=1;exitDx=0;exitDy=0;entryX=0.57;entryY=-0.008;entryDx=0;entryDy=0;entryPerimeter=0;" edge="1" parent="1" source="bfp73OwQ1fV5iFU1kIxK-21" target="bfp73OwQ1fV5iFU1kIxK-30">
          <mxGeometry relative="1" as="geometry" />
        </mxCell>
        <mxCell id="bfp73OwQ1fV5iFU1kIxK-47" style="edgeStyle=orthogonalEdgeStyle;rounded=0;orthogonalLoop=1;jettySize=auto;html=1;exitX=0.75;exitY=1;exitDx=0;exitDy=0;entryX=0.5;entryY=0;entryDx=0;entryDy=0;" edge="1" parent="1" source="bfp73OwQ1fV5iFU1kIxK-21" target="bfp73OwQ1fV5iFU1kIxK-45">
          <mxGeometry relative="1" as="geometry" />
        </mxCell>
        <mxCell id="bfp73OwQ1fV5iFU1kIxK-21" value="worker()" style="rounded=1;whiteSpace=wrap;html=1;" vertex="1" parent="1">
          <mxGeometry x="670" y="410" width="250" height="60" as="geometry" />
        </mxCell>
        <mxCell id="bfp73OwQ1fV5iFU1kIxK-38" style="edgeStyle=orthogonalEdgeStyle;rounded=0;orthogonalLoop=1;jettySize=auto;html=1;exitX=0;exitY=0.5;exitDx=0;exitDy=0;" edge="1" parent="1" source="bfp73OwQ1fV5iFU1kIxK-30">
          <mxGeometry relative="1" as="geometry">
            <mxPoint x="592" y="538" as="targetPoint" />
          </mxGeometry>
        </mxCell>
        <mxCell id="bfp73OwQ1fV5iFU1kIxK-30" value="join()" style="rounded=1;whiteSpace=wrap;html=1;" vertex="1" parent="1">
          <mxGeometry x="670" y="508" width="122" height="60" as="geometry" />
        </mxCell>
        <mxCell id="bfp73OwQ1fV5iFU1kIxK-54" value="" style="edgeStyle=orthogonalEdgeStyle;rounded=0;orthogonalLoop=1;jettySize=auto;html=1;" edge="1" parent="1" source="bfp73OwQ1fV5iFU1kIxK-34" target="bfp73OwQ1fV5iFU1kIxK-53">
          <mxGeometry relative="1" as="geometry" />
        </mxCell>
        <mxCell id="bfp73OwQ1fV5iFU1kIxK-34" value="get_single_table_data()" style="rounded=1;whiteSpace=wrap;html=1;" vertex="1" parent="1">
          <mxGeometry x="794" y="692" width="128" height="60" as="geometry" />
        </mxCell>
        <mxCell id="bfp73OwQ1fV5iFU1kIxK-36" value="read_one_record()" style="rounded=1;whiteSpace=wrap;html=1;" vertex="1" parent="1">
          <mxGeometry x="280" y="508" width="110" height="772" as="geometry" />
        </mxCell>
        <mxCell id="bfp73OwQ1fV5iFU1kIxK-48" style="edgeStyle=orthogonalEdgeStyle;rounded=0;orthogonalLoop=1;jettySize=auto;html=1;exitX=0.5;exitY=1;exitDx=0;exitDy=0;entryX=0.5;entryY=0;entryDx=0;entryDy=0;" edge="1" parent="1" source="bfp73OwQ1fV5iFU1kIxK-45" target="bfp73OwQ1fV5iFU1kIxK-34">
          <mxGeometry relative="1" as="geometry" />
        </mxCell>
        <mxCell id="bfp73OwQ1fV5iFU1kIxK-49" value="不为空，取出一张表" style="edgeLabel;html=1;align=center;verticalAlign=middle;resizable=0;points=[];" vertex="1" connectable="0" parent="bfp73OwQ1fV5iFU1kIxK-48">
          <mxGeometry x="-0.2162" relative="1" as="geometry">
            <mxPoint as="offset" />
          </mxGeometry>
        </mxCell>
        <mxCell id="bfp73OwQ1fV5iFU1kIxK-51" style="edgeStyle=orthogonalEdgeStyle;rounded=0;orthogonalLoop=1;jettySize=auto;html=1;exitX=0;exitY=0.5;exitDx=0;exitDy=0;" edge="1" parent="1" source="bfp73OwQ1fV5iFU1kIxK-45">
          <mxGeometry relative="1" as="geometry">
            <mxPoint x="590" y="608" as="targetPoint" />
          </mxGeometry>
        </mxCell>
        <mxCell id="bfp73OwQ1fV5iFU1kIxK-52" value="为空" style="edgeLabel;html=1;align=center;verticalAlign=middle;resizable=0;points=[];" vertex="1" connectable="0" parent="bfp73OwQ1fV5iFU1kIxK-51">
          <mxGeometry x="0.0024" y="13" relative="1" as="geometry">
            <mxPoint x="13" y="-13" as="offset" />
          </mxGeometry>
        </mxCell>
        <mxCell id="bfp73OwQ1fV5iFU1kIxK-45" value="_real_tables&lt;br&gt;_nopk_real_tables&lt;br&gt;不为空" style="rhombus;whiteSpace=wrap;html=1;rounded=1;" vertex="1" parent="1">
          <mxGeometry x="798" y="560" width="120" height="95" as="geometry" />
        </mxCell>
        <mxCell id="bfp73OwQ1fV5iFU1kIxK-55" style="edgeStyle=orthogonalEdgeStyle;rounded=0;orthogonalLoop=1;jettySize=auto;html=1;exitX=0;exitY=0.5;exitDx=0;exitDy=0;entryX=1;entryY=0.955;entryDx=0;entryDy=0;entryPerimeter=0;" edge="1" parent="1" source="bfp73OwQ1fV5iFU1kIxK-53" target="bfp73OwQ1fV5iFU1kIxK-13">
          <mxGeometry relative="1" as="geometry" />
        </mxCell>
        <mxCell id="bfp73OwQ1fV5iFU1kIxK-56" value="worker线程退出" style="edgeLabel;html=1;align=center;verticalAlign=middle;resizable=0;points=[];" vertex="1" connectable="0" parent="bfp73OwQ1fV5iFU1kIxK-55">
          <mxGeometry x="0.0581" y="1" relative="1" as="geometry">
            <mxPoint as="offset" />
          </mxGeometry>
        </mxCell>
        <mxCell id="bfp73OwQ1fV5iFU1kIxK-57" value="是" style="edgeLabel;html=1;align=center;verticalAlign=middle;resizable=0;points=[];" vertex="1" connectable="0" parent="bfp73OwQ1fV5iFU1kIxK-55">
          <mxGeometry x="-0.7337" relative="1" as="geometry">
            <mxPoint as="offset" />
          </mxGeometry>
        </mxCell>
        <mxCell id="bfp73OwQ1fV5iFU1kIxK-59" value="" style="edgeStyle=orthogonalEdgeStyle;rounded=0;orthogonalLoop=1;jettySize=auto;html=1;" edge="1" parent="1" source="bfp73OwQ1fV5iFU1kIxK-53" target="bfp73OwQ1fV5iFU1kIxK-58">
          <mxGeometry relative="1" as="geometry" />
        </mxCell>
        <mxCell id="bfp73OwQ1fV5iFU1kIxK-60" value="否，线程继续" style="edgeLabel;html=1;align=center;verticalAlign=middle;resizable=0;points=[];" vertex="1" connectable="0" parent="bfp73OwQ1fV5iFU1kIxK-59">
          <mxGeometry x="-0.4" y="1" relative="1" as="geometry">
            <mxPoint as="offset" />
          </mxGeometry>
        </mxCell>
        <mxCell id="bfp73OwQ1fV5iFU1kIxK-53" value="_task_status&lt;br&gt;== 1 ?" style="rhombus;whiteSpace=wrap;html=1;rounded=1;" vertex="1" parent="1">
          <mxGeometry x="812" y="790" width="92" height="80" as="geometry" />
        </mxCell>
        <mxCell id="bfp73OwQ1fV5iFU1kIxK-62" value="" style="edgeStyle=orthogonalEdgeStyle;rounded=0;orthogonalLoop=1;jettySize=auto;html=1;" edge="1" parent="1" source="bfp73OwQ1fV5iFU1kIxK-58" target="bfp73OwQ1fV5iFU1kIxK-61">
          <mxGeometry relative="1" as="geometry" />
        </mxCell>
        <mxCell id="bfp73OwQ1fV5iFU1kIxK-58" value="bind_table_and_get_result()&lt;br&gt;获取表全量数据" style="whiteSpace=wrap;html=1;rounded=1;" vertex="1" parent="1">
          <mxGeometry x="777" y="920" width="162" height="60" as="geometry" />
        </mxCell>
        <mxCell id="bfp73OwQ1fV5iFU1kIxK-64" style="edgeStyle=orthogonalEdgeStyle;rounded=0;orthogonalLoop=1;jettySize=auto;html=1;exitX=0.5;exitY=1;exitDx=0;exitDy=0;entryX=0.5;entryY=0;entryDx=0;entryDy=0;" edge="1" parent="1" source="bfp73OwQ1fV5iFU1kIxK-61" target="bfp73OwQ1fV5iFU1kIxK-63">
          <mxGeometry relative="1" as="geometry" />
        </mxCell>
        <mxCell id="bfp73OwQ1fV5iFU1kIxK-61" value="make_record()" style="whiteSpace=wrap;html=1;rounded=1;" vertex="1" parent="1">
          <mxGeometry x="786.5" y="1030" width="143" height="50" as="geometry" />
        </mxCell>
        <mxCell id="bfp73OwQ1fV5iFU1kIxK-65" style="edgeStyle=orthogonalEdgeStyle;rounded=0;orthogonalLoop=1;jettySize=auto;html=1;exitX=0;exitY=0.5;exitDx=0;exitDy=0;" edge="1" parent="1" source="bfp73OwQ1fV5iFU1kIxK-63">
          <mxGeometry relative="1" as="geometry">
            <mxPoint x="700" y="830" as="targetPoint" />
          </mxGeometry>
        </mxCell>
        <mxCell id="bfp73OwQ1fV5iFU1kIxK-66" value="是" style="edgeLabel;html=1;align=center;verticalAlign=middle;resizable=0;points=[];" vertex="1" connectable="0" parent="bfp73OwQ1fV5iFU1kIxK-65">
          <mxGeometry x="-0.7685" y="3" relative="1" as="geometry">
            <mxPoint as="offset" />
          </mxGeometry>
        </mxCell>
        <mxCell id="bfp73OwQ1fV5iFU1kIxK-68" value="" style="edgeStyle=orthogonalEdgeStyle;rounded=0;orthogonalLoop=1;jettySize=auto;html=1;" edge="1" parent="1" source="bfp73OwQ1fV5iFU1kIxK-63" target="bfp73OwQ1fV5iFU1kIxK-67">
          <mxGeometry relative="1" as="geometry" />
        </mxCell>
        <mxCell id="bfp73OwQ1fV5iFU1kIxK-69" value="否" style="edgeLabel;html=1;align=center;verticalAlign=middle;resizable=0;points=[];" vertex="1" connectable="0" parent="bfp73OwQ1fV5iFU1kIxK-68">
          <mxGeometry x="0.3" y="3" relative="1" as="geometry">
            <mxPoint as="offset" />
          </mxGeometry>
        </mxCell>
        <mxCell id="bfp73OwQ1fV5iFU1kIxK-63" value="_task_status&lt;br&gt;== 1 ?" style="rhombus;whiteSpace=wrap;html=1;rounded=1;" vertex="1" parent="1">
          <mxGeometry x="812" y="1110" width="92" height="80" as="geometry" />
        </mxCell>
        <mxCell id="bfp73OwQ1fV5iFU1kIxK-71" style="edgeStyle=orthogonalEdgeStyle;rounded=0;orthogonalLoop=1;jettySize=auto;html=1;exitX=0;exitY=0.5;exitDx=0;exitDy=0;entryX=0.995;entryY=0.961;entryDx=0;entryDy=0;entryPerimeter=0;" edge="1" parent="1" source="bfp73OwQ1fV5iFU1kIxK-67" target="bfp73OwQ1fV5iFU1kIxK-36">
          <mxGeometry relative="1" as="geometry" />
        </mxCell>
        <mxCell id="bfp73OwQ1fV5iFU1kIxK-72" value="record" style="edgeLabel;html=1;align=center;verticalAlign=middle;resizable=0;points=[];" vertex="1" connectable="0" parent="bfp73OwQ1fV5iFU1kIxK-71">
          <mxGeometry x="-0.0011" y="-10" relative="1" as="geometry">
            <mxPoint x="10" y="8" as="offset" />
          </mxGeometry>
        </mxCell>
        <mxCell id="bfp73OwQ1fV5iFU1kIxK-74" value="" style="edgeStyle=orthogonalEdgeStyle;rounded=0;orthogonalLoop=1;jettySize=auto;html=1;" edge="1" parent="1" source="bfp73OwQ1fV5iFU1kIxK-67" target="bfp73OwQ1fV5iFU1kIxK-73">
          <mxGeometry relative="1" as="geometry" />
        </mxCell>
        <mxCell id="bfp73OwQ1fV5iFU1kIxK-67" value="record_queue_push()" style="whiteSpace=wrap;html=1;rounded=1;" vertex="1" parent="1">
          <mxGeometry x="798" y="1220" width="120" height="60" as="geometry" />
        </mxCell>
        <mxCell id="bfp73OwQ1fV5iFU1kIxK-73" value="abnormal ==？" style="rhombus;whiteSpace=wrap;html=1;rounded=1;" vertex="1" parent="1">
          <mxGeometry x="812" y="1310" width="92" height="80" as="geometry" />
        </mxCell>
        <mxCell id="bfp73OwQ1fV5iFU1kIxK-78" value="" style="endArrow=none;html=1;exitX=0.978;exitY=0.5;exitDx=0;exitDy=0;exitPerimeter=0;" edge="1" parent="1" source="bfp73OwQ1fV5iFU1kIxK-73">
          <mxGeometry width="50" height="50" relative="1" as="geometry">
            <mxPoint x="680" y="1360" as="sourcePoint" />
            <mxPoint x="960" y="1350" as="targetPoint" />
          </mxGeometry>
        </mxCell>
        <mxCell id="bfp73OwQ1fV5iFU1kIxK-85" value="3" style="edgeLabel;html=1;align=center;verticalAlign=middle;resizable=0;points=[];" vertex="1" connectable="0" parent="bfp73OwQ1fV5iFU1kIxK-78">
          <mxGeometry x="-0.2083" y="-2" relative="1" as="geometry">
            <mxPoint as="offset" />
          </mxGeometry>
        </mxCell>
        <mxCell id="bfp73OwQ1fV5iFU1kIxK-82" value="" style="endArrow=none;html=1;" edge="1" parent="1">
          <mxGeometry width="50" height="50" relative="1" as="geometry">
            <mxPoint x="960" y="1350" as="sourcePoint" />
            <mxPoint x="960" y="1060" as="targetPoint" />
          </mxGeometry>
        </mxCell>
        <mxCell id="bfp73OwQ1fV5iFU1kIxK-84" value="继续拉取&lt;br&gt;当前表数据" style="edgeLabel;html=1;align=center;verticalAlign=middle;resizable=0;points=[];" vertex="1" connectable="0" parent="bfp73OwQ1fV5iFU1kIxK-82">
          <mxGeometry x="-0.4425" y="1" relative="1" as="geometry">
            <mxPoint as="offset" />
          </mxGeometry>
        </mxCell>
        <mxCell id="bfp73OwQ1fV5iFU1kIxK-83" value="" style="endArrow=classic;html=1;" edge="1" parent="1">
          <mxGeometry width="50" height="50" relative="1" as="geometry">
            <mxPoint x="960" y="1060" as="sourcePoint" />
            <mxPoint x="930" y="1060" as="targetPoint" />
          </mxGeometry>
        </mxCell>
        <mxCell id="bfp73OwQ1fV5iFU1kIxK-90" value="" style="endArrow=none;html=1;entryX=0.5;entryY=0.963;entryDx=0;entryDy=0;entryPerimeter=0;" edge="1" parent="1">
          <mxGeometry width="50" height="50" relative="1" as="geometry">
            <mxPoint x="1040" y="1389" as="sourcePoint" />
            <mxPoint x="858" y="1389.04" as="targetPoint" />
          </mxGeometry>
        </mxCell>
        <mxCell id="bfp73OwQ1fV5iFU1kIxK-91" value="2" style="edgeLabel;html=1;align=center;verticalAlign=middle;resizable=0;points=[];" vertex="1" connectable="0" parent="bfp73OwQ1fV5iFU1kIxK-90">
          <mxGeometry x="0.0448" relative="1" as="geometry">
            <mxPoint as="offset" />
          </mxGeometry>
        </mxCell>
        <mxCell id="bfp73OwQ1fV5iFU1kIxK-92" value="" style="endArrow=none;html=1;" edge="1" parent="1">
          <mxGeometry width="50" height="50" relative="1" as="geometry">
            <mxPoint x="1040" y="1390" as="sourcePoint" />
            <mxPoint x="1040" y="610" as="targetPoint" />
          </mxGeometry>
        </mxCell>
        <mxCell id="bfp73OwQ1fV5iFU1kIxK-94" value="当前表全量&lt;br&gt;数据结束" style="edgeLabel;html=1;align=center;verticalAlign=middle;resizable=0;points=[];" vertex="1" connectable="0" parent="bfp73OwQ1fV5iFU1kIxK-92">
          <mxGeometry x="-0.0368" y="1" relative="1" as="geometry">
            <mxPoint as="offset" />
          </mxGeometry>
        </mxCell>
        <mxCell id="bfp73OwQ1fV5iFU1kIxK-93" value="" style="endArrow=classic;html=1;" edge="1" parent="1">
          <mxGeometry width="50" height="50" relative="1" as="geometry">
            <mxPoint x="1040" y="610" as="sourcePoint" />
            <mxPoint x="920" y="610" as="targetPoint" />
          </mxGeometry>
        </mxCell>
        <mxCell id="bfp73OwQ1fV5iFU1kIxK-95" value="" style="endArrow=none;html=1;exitX=1;exitY=1;exitDx=0;exitDy=0;" edge="1" parent="1" source="bfp73OwQ1fV5iFU1kIxK-73">
          <mxGeometry width="50" height="50" relative="1" as="geometry">
            <mxPoint x="860" y="1460" as="sourcePoint" />
            <mxPoint x="1000" y="1370" as="targetPoint" />
          </mxGeometry>
        </mxCell>
        <mxCell id="bfp73OwQ1fV5iFU1kIxK-96" value="否则" style="edgeLabel;html=1;align=center;verticalAlign=middle;resizable=0;points=[];" vertex="1" connectable="0" parent="bfp73OwQ1fV5iFU1kIxK-95">
          <mxGeometry x="0.0396" y="1" relative="1" as="geometry">
            <mxPoint as="offset" />
          </mxGeometry>
        </mxCell>
        <mxCell id="bfp73OwQ1fV5iFU1kIxK-97" value="" style="endArrow=none;html=1;" edge="1" parent="1">
          <mxGeometry width="50" height="50" relative="1" as="geometry">
            <mxPoint x="1000" y="1370" as="sourcePoint" />
            <mxPoint x="1000" y="720" as="targetPoint" />
          </mxGeometry>
        </mxCell>
        <mxCell id="bfp73OwQ1fV5iFU1kIxK-99" value="当前表&lt;br&gt;进行重试" style="edgeLabel;html=1;align=center;verticalAlign=middle;resizable=0;points=[];" vertex="1" connectable="0" parent="bfp73OwQ1fV5iFU1kIxK-97">
          <mxGeometry x="0.3477" y="4" relative="1" as="geometry">
            <mxPoint as="offset" />
          </mxGeometry>
        </mxCell>
        <mxCell id="bfp73OwQ1fV5iFU1kIxK-98" value="" style="endArrow=classic;html=1;entryX=1;entryY=0.5;entryDx=0;entryDy=0;" edge="1" parent="1">
          <mxGeometry width="50" height="50" relative="1" as="geometry">
            <mxPoint x="1000" y="721" as="sourcePoint" />
            <mxPoint x="922" y="721" as="targetPoint" />
          </mxGeometry>
        </mxCell>
      </root>
    </mxGraphModel>
  </diagram>
</mxfile>
